<?xml version="1.0" standalone="no"?>
<!DOCTYPE svg PUBLIC "-//W3C//DTD SVG 20010904//EN"
 "http://www.w3.org/TR/2001/REC-SVG-20010904/DTD/svg10.dtd">
<svg version="1.0" xmlns="http://www.w3.org/2000/svg"
 width="1280.000000pt" height="1280.000000pt" viewBox="0 0 1280.000000 1280.000000"
 preserveAspectRatio="xMidYMid meet">
<metadata>
Created by potrace 1.14, written by Peter Selinger 2001-2017
</metadata>
<g transform="translate(0.000000,1280.000000) scale(0.100000,-0.100000)"
fill="#000000" stroke="none">
<path d="M5120 9153 c5 -2 7 -9 4 -14 -6 -10 -16 -107 -16 -149 0 -14 -4 -31
-10 -37 -7 -9 -7 -13 1 -13 7 0 9 -5 5 -12 -5 -7 -9 -33 -11 -58 -3 -56 -11
-181 -16 -237 -2 -26 1 -43 7 -43 7 0 7 -3 0 -8 -8 -5 -12 -68 -13 -196 -1
-104 -6 -196 -11 -205 -5 -9 -10 -13 -10 -10 0 7 -48 -34 -128 -111 -31 -30
-61 -53 -66 -52 -5 2 -6 -4 -2 -13 3 -9 2 -14 -3 -11 -4 3 -22 -10 -39 -29
-16 -19 -28 -35 -26 -35 3 0 -9 -13 -27 -29 -17 -16 -28 -34 -25 -40 4 -6 0
-11 -8 -11 -9 0 -16 -3 -16 -8 0 -4 -11 -20 -25 -35 -14 -15 -22 -27 -18 -27
4 0 -1 -7 -12 -16 -11 -8 -18 -17 -16 -20 1 -3 -7 -17 -19 -31 -12 -13 -22
-33 -23 -43 -1 -10 -4 -17 -7 -15 -5 3 -32 -22 -29 -27 3 -8 -27 -64 -39 -71
-10 -7 -11 -12 -1 -23 10 -12 10 -15 -2 -12 -8 2 -13 -3 -11 -9 1 -7 -2 -13
-6 -13 -10 0 -38 -70 -34 -83 1 -5 -1 -6 -6 -3 -8 5 -83 -187 -82 -211 0 -7
-4 -13 -9 -13 -5 0 -8 -8 -6 -17 1 -10 0 -22 -4 -28 -3 -5 -7 -16 -8 -22 -2
-7 -5 -19 -6 -25 -15 -52 -22 -86 -32 -148 -28 -170 -27 -523 1 -653 3 -12 7
-38 10 -57 3 -19 8 -36 12 -38 5 -1 7 -16 6 -32 -1 -17 2 -30 6 -30 5 0 7 -9
5 -20 -2 -11 0 -20 5 -20 4 0 11 -7 14 -16 4 -10 2 -13 -6 -8 -7 5 -8 3 -2 -7
5 -8 9 -16 10 -19 0 -3 3 -12 6 -20 3 -8 14 -37 23 -65 10 -27 27 -70 38 -95
11 -25 20 -51 20 -57 0 -7 4 -13 8 -13 8 0 24 -40 21 -52 -1 -5 2 -8 6 -8 5 0
14 -16 22 -35 8 -19 17 -35 22 -35 4 0 8 -7 8 -15 0 -8 5 -15 11 -15 5 0 8 -4
4 -9 -3 -5 0 -15 7 -23 7 -7 19 -25 27 -40 8 -16 18 -28 23 -28 5 0 6 -4 3
-10 -3 -5 -1 -10 5 -10 6 0 13 -8 17 -17 3 -10 21 -37 39 -59 18 -23 30 -45
26 -49 -4 -5 -1 -5 6 -1 6 4 12 3 12 -3 0 -5 16 -25 35 -45 19 -20 32 -36 29
-36 -2 0 13 -17 36 -38 22 -22 40 -44 40 -50 0 -7 4 -11 8 -9 5 1 32 -20 60
-48 91 -88 102 -96 115 -89 6 4 9 4 5 0 -8 -10 14 -36 25 -29 4 2 7 0 7 -5 0
-6 20 -23 45 -39 25 -15 45 -31 45 -35 0 -5 7 -8 15 -8 8 0 15 -4 15 -10 0 -5
6 -10 13 -10 7 0 30 -15 52 -32 22 -18 35 -26 30 -18 -8 15 33 -16 46 -34 4
-5 11 -6 16 -3 6 4 19 -1 29 -11 11 -9 26 -18 34 -20 8 -2 17 -7 20 -10 5 -7
47 -25 108 -46 17 -6 32 -15 32 -19 0 -5 4 -6 9 -2 5 3 15 0 23 -7 7 -7 22
-14 33 -16 17 -3 42 -11 125 -39 8 -3 24 -7 35 -9 26 -5 42 -8 90 -22 22 -6
56 -13 75 -16 19 -2 35 -5 35 -6 0 -2 77 -13 103 -14 12 -1 22 -3 22 -6 0 -3
43 -5 95 -5 57 0 95 -4 95 -10 0 -7 3 -7 8 0 9 13 52 15 52 3 0 -5 4 -7 8 -4
5 3 19 -6 30 -19 12 -14 26 -25 31 -25 5 0 13 -9 16 -20 3 -11 13 -20 21 -20
8 0 14 -6 14 -13 0 -8 12 -19 26 -25 14 -7 22 -17 19 -22 -3 -6 1 -10 10 -10
8 0 18 -7 21 -15 4 -8 10 -13 14 -10 5 3 11 -4 15 -15 3 -11 12 -20 19 -20 7
0 22 -10 34 -23 26 -28 52 -49 52 -43 0 3 11 -5 24 -17 49 -46 78 -67 92 -67
8 0 14 -7 14 -17 0 -9 3 -14 6 -10 4 3 12 1 20 -6 42 -37 129 -97 142 -97 6 0
12 -6 15 -12 4 -10 7 -10 18 -1 7 8 8 13 2 13 -5 0 -24 14 -41 30 -18 17 -37
30 -44 30 -6 0 -9 2 -6 5 6 6 -100 115 -111 115 -3 0 -15 13 -26 30 -11 16
-30 35 -42 41 -13 7 -23 16 -23 20 0 4 -17 25 -37 46 -61 63 -98 107 -96 115
2 4 -6 9 -16 13 -10 3 -24 17 -31 30 -7 14 -17 25 -22 25 -4 0 -8 7 -8 16 0 8
4 13 9 9 12 -7 43 24 36 36 -4 5 -2 9 3 9 5 0 8 10 7 23 -1 12 0 27 2 34 6 16
50 10 74 -10 10 -9 19 -14 19 -10 0 4 18 -12 41 -35 22 -23 44 -40 48 -38 4 3
19 7 34 10 72 13 167 40 167 47 0 4 9 6 20 4 11 -2 37 3 58 12 39 17 58 23 80
25 6 1 12 5 12 10 0 4 8 8 18 8 10 0 28 7 40 16 12 8 22 12 22 8 0 -4 10 1 22
12 12 10 19 14 15 8 -4 -6 17 2 46 17 28 16 67 36 86 45 19 8 40 22 48 30 8 8
19 14 24 14 9 0 109 62 136 85 7 6 19 16 27 23 8 6 20 12 26 12 5 0 10 5 10
10 0 6 6 10 14 10 8 0 16 7 20 15 3 8 10 15 17 15 6 0 20 11 31 25 11 14 23
24 26 22 7 -3 237 225 234 231 -7 10 1 22 18 27 11 4 18 10 16 14 -3 4 12 25
31 47 20 21 36 41 35 44 -1 3 4 12 11 20 7 8 23 33 37 55 13 22 27 42 31 45 3
3 9 15 13 28 4 12 12 22 17 22 6 0 8 4 5 8 -3 5 3 18 12 28 10 10 19 23 19 27
2 18 26 67 33 67 3 0 7 6 7 13 0 6 10 34 23 62 12 27 23 54 25 60 1 5 7 21 12
35 6 14 14 40 18 58 3 17 11 32 17 32 6 0 9 3 6 6 -4 3 -2 20 3 37 6 18 12 43
15 57 3 13 10 30 16 37 7 9 7 13 -1 13 -8 0 -9 5 -2 19 11 19 20 61 26 121 2
19 4 35 5 35 1 0 4 9 6 20 7 30 11 415 4 415 -3 0 -6 20 -7 45 -4 103 -5 115
-15 115 -6 0 -8 6 -5 14 3 8 0 37 -8 65 -7 28 -14 54 -14 56 -1 3 -1 6 -2 8 0
1 -2 10 -4 19 -2 10 -13 48 -25 85 -12 38 -23 73 -24 79 -1 7 -8 20 -16 30 -8
10 -10 15 -3 11 6 -4 -2 18 -17 48 -15 30 -26 55 -23 55 3 0 0 7 -7 15 -7 8
-9 15 -4 15 5 0 4 4 -2 8 -5 4 -20 27 -32 52 -40 79 -95 174 -114 194 -10 11
-18 24 -18 29 0 4 -6 15 -12 22 -26 29 -38 44 -38 49 0 6 -50 65 -96 113 -23
24 -39 43 -36 43 5 0 -130 132 -172 168 -14 12 -28 22 -31 22 -2 0 -15 10 -28
23 -32 30 -91 74 -97 73 -3 -1 -12 5 -20 12 -45 39 -63 51 -90 62 -17 7 -30
16 -30 21 0 5 -9 9 -21 9 -11 0 -18 4 -15 9 4 5 -7 12 -24 16 -16 4 -30 11
-30 16 0 6 -4 8 -9 5 -5 -4 -11 -1 -13 4 -2 6 -10 12 -18 14 -8 1 -26 8 -40
16 -14 8 -27 15 -30 15 -3 0 -15 6 -26 13 -12 6 -24 8 -28 5 -3 -3 -6 -1 -6 5
0 6 -19 16 -42 23 -24 6 -56 17 -73 24 -38 16 -118 39 -127 37 -5 -1 -8 2 -8
6 0 5 -6 9 -12 10 -61 4 -93 11 -96 21 -2 6 -7 9 -12 6 -4 -3 -39 1 -76 9 -38
8 -72 12 -75 10 -4 -2 -10 0 -13 5 -5 8 -30 10 -163 14 -24 0 -43 5 -43 11 0
6 -5 5 -12 -2 -8 -8 -17 -8 -31 -1 -15 8 -18 8 -12 -1 6 -9 2 -9 -14 -1 -16 9
-21 9 -21 -1 0 -8 -3 -9 -8 -3 -8 12 -43 12 -62 0 -9 -6 -11 -4 -5 5 6 9 4 11
-5 5 -21 -13 -93 -14 -109 -1 -11 8 -13 8 -7 -1 5 -10 -4 -13 -36 -14 -45 -1
-67 -3 -108 -12 -14 -3 -41 -8 -60 -11 -102 -18 -114 -20 -166 -38 -23 -8 -48
-14 -57 -12 -10 1 -17 -2 -17 -7 0 -5 -3 -8 -7 -7 -11 2 -66 -13 -78 -22 -12
-9 -67 -24 -77 -22 -5 1 -8 -3 -8 -10 0 -6 -3 -8 -6 -5 -4 3 -16 1 -28 -5 -11
-7 -27 -13 -35 -14 -8 -2 -17 -8 -21 -14 -4 -7 -10 -11 -14 -11 -3 1 -20 -6
-36 -14 -17 -9 -30 -13 -30 -10 0 4 -7 -1 -16 -9 -8 -9 -22 -16 -29 -16 -22 0
-45 -40 -36 -64 4 -11 7 -28 6 -36 -1 -8 1 -19 3 -24 3 -5 5 -35 6 -67 0 -33
3 -59 6 -59 5 0 11 -60 14 -132 0 -21 3 -38 7 -38 5 0 10 -45 13 -112 0 -16 4
-28 7 -28 4 0 7 -10 8 -22 1 -29 9 -103 11 -103 1 0 3 -15 6 -34 4 -32 6 -46
17 -96 3 -11 8 -44 12 -72 4 -29 12 -53 17 -53 6 0 5 -6 -2 -15 -7 -8 -8 -15
-3 -15 5 0 9 -8 10 -17 5 -52 16 -109 23 -113 21 -14 -10 -110 -35 -110 -5 0
-21 -16 -35 -34 -14 -19 -28 -32 -32 -29 -5 2 -8 -3 -8 -11 0 -23 -17 -20 -31
5 -6 13 -7 19 -1 15 7 -4 7 3 2 21 -12 38 -33 140 -33 158 0 8 -3 15 -7 15 -3
0 -6 10 -7 23 0 22 -7 62 -22 127 -4 20 -7 43 -5 53 1 9 -1 17 -5 17 -4 0 -8
18 -9 41 -1 22 -5 46 -9 52 -3 6 -8 25 -9 41 -1 17 -5 45 -9 61 -3 17 -8 44
-9 60 -2 17 -7 55 -10 85 -4 30 -9 71 -11 90 -3 19 -7 59 -8 87 -1 29 -5 53
-8 53 -3 0 -6 19 -8 43 -1 23 -4 58 -6 77 -2 19 -6 73 -10 120 -3 46 -12 91
-18 99 -8 10 -8 13 -1 8 12 -7 14 56 3 78 -2 6 -4 28 -4 50 0 22 -4 43 -10 47
-6 5 -6 8 1 8 7 0 10 13 7 33 -2 17 -5 69 -7 115 -2 45 -6 85 -9 89 -4 3 -2
14 4 24 7 13 6 19 -1 19 -7 0 -8 6 -1 19 6 10 7 21 4 25 -4 4 -7 48 -8 98 0
65 -4 92 -13 94 -7 1 -8 0 -2 -3z"/>
</g>
</svg>
